<svg width="133" height="100" viewBox="0 0 133 100" fill="none" xmlns="http://www.w3.org/2000/svg">
<path d="M64.3437 38.0938H56.0101C55.9371 38.0938 55.8648 38.0794 55.7973 38.0514C55.7298 38.0235 55.6685 37.9825 55.6169 37.9309C55.5652 37.8792 55.5242 37.8179 55.4963 37.7504C55.4683 37.6829 55.454 37.6106 55.454 37.5376V35.8632C55.4508 34.6883 54.9819 33.5627 54.1501 32.733C53.3182 31.9034 52.1913 31.4375 51.0165 31.4375L19.9835 31.473C18.8092 31.4753 17.6837 31.9431 16.8536 32.7738C16.0235 33.6044 15.5565 34.7302 15.5549 35.9046V37.5435C15.5541 37.6905 15.4952 37.8312 15.391 37.9349C15.2868 38.0385 15.1457 38.0967 14.9988 38.0967H6.65625C6.0678 38.0967 5.50345 38.3305 5.08736 38.7466C4.67126 39.1627 4.4375 39.727 4.4375 40.3155V42.5342C4.4375 50.0957 8.59692 58.1276 15.049 59.9174C15.2396 59.9703 15.412 60.0743 15.5476 60.2183C15.6832 60.3622 15.7768 60.5405 15.8182 60.7339C16.617 64.4614 19.0812 68.0143 22.9478 70.9401C25.847 73.1382 29.3082 74.7564 32.4145 75.4457C32.6605 75.5008 32.8804 75.6381 33.0379 75.8349C33.1955 76.0317 33.2813 76.2763 33.2812 76.5284V88.5748C33.2805 88.7217 33.2215 88.8625 33.1173 88.9661C33.0131 89.0698 32.8721 89.128 32.7251 89.128H24.4713C23.2732 89.128 22.2526 90.045 22.1905 91.2402C22.176 91.5402 22.2227 91.8399 22.3275 92.1213C22.4324 92.4028 22.5932 92.6599 22.8004 92.8773C23.0076 93.0947 23.2567 93.2678 23.5327 93.3861C23.8088 93.5044 24.1059 93.5654 24.4062 93.5655H46.5316C47.7268 93.5655 48.7504 92.6484 48.8095 91.4532C48.8235 91.1532 48.7766 90.8535 48.6716 90.5721C48.5667 90.2907 48.4058 90.0335 48.1988 89.816C47.9917 89.5984 47.7428 89.4251 47.4669 89.3063C47.1911 89.1876 46.8941 89.1259 46.5937 89.125H38.272C38.125 89.1242 37.9843 89.0653 37.8806 88.9611C37.7769 88.8569 37.7187 88.7158 37.7187 88.5688V76.5255C37.7187 76.2734 37.8045 76.0287 37.9621 75.8319C38.1196 75.6351 38.3395 75.4978 38.5855 75.4427C41.6918 74.7505 45.153 73.1352 48.0522 70.9401C51.9217 68.0114 54.383 64.4614 55.1818 60.7339C55.2227 60.54 55.3161 60.361 55.4517 60.2165C55.5874 60.072 55.76 59.9675 55.951 59.9144C62.4001 58.1246 66.5625 50.0928 66.5625 42.5313V40.3125C66.5625 39.7241 66.3287 39.1597 65.9126 38.7436C65.4965 38.3275 64.9322 38.0938 64.3437 38.0938ZM15.5312 54.4888C15.5309 54.5859 15.505 54.6812 15.4562 54.7651C15.4074 54.849 15.3373 54.9186 15.2531 54.9669C15.1688 55.0152 15.0734 55.0404 14.9763 55.0401C14.8792 55.0398 14.7839 55.0139 14.7 54.9651C13.277 54.119 12.2386 52.8351 11.6292 51.9299C9.97846 49.4774 8.99629 46.2913 8.88387 43.1081C8.88109 43.0334 8.89342 42.9588 8.92012 42.8889C8.94682 42.819 8.98734 42.7553 9.03927 42.7014C9.09119 42.6475 9.15345 42.6047 9.22231 42.5755C9.29117 42.5462 9.36523 42.5312 9.44004 42.5313H14.9869C15.0598 42.5313 15.132 42.5457 15.1993 42.5736C15.2666 42.6016 15.3277 42.6426 15.3791 42.6943C15.4306 42.746 15.4712 42.8073 15.4989 42.8748C15.5265 42.9423 15.5405 43.0145 15.5401 43.0874C15.5401 46.8918 15.5312 51.2495 15.5312 54.4888ZM59.3708 51.9299C58.7614 52.8351 57.723 54.119 56.3 54.9651C56.2159 55.0141 56.1203 55.0399 56.023 55.0401C55.9256 55.0403 55.83 55.0148 55.7457 54.9662C55.6613 54.9175 55.5913 54.8475 55.5427 54.7632C55.4941 54.6789 55.4686 54.5832 55.4687 54.4859C55.4687 50.8087 55.4687 46.6345 55.4628 43.0845C55.4628 43.0118 55.4771 42.9399 55.5049 42.8728C55.5327 42.8056 55.5735 42.7447 55.6249 42.6933C55.6762 42.6419 55.7372 42.6012 55.8043 42.5734C55.8715 42.5456 55.9434 42.5313 56.016 42.5313H61.5629C61.6378 42.5308 61.7121 42.5455 61.7812 42.5746C61.8502 42.6037 61.9126 42.6465 61.9646 42.7005C62.0167 42.7544 62.0572 42.8184 62.0837 42.8885C62.1103 42.9585 62.1223 43.0333 62.1191 43.1081C62.0096 46.2913 61.0245 49.4774 59.3708 51.9299Z" fill="#DBE0F4"/>
<path d="M108.625 15.625H96.8875C96.7846 15.625 96.6828 15.6047 96.5877 15.5654C96.4927 15.526 96.4063 15.4683 96.3336 15.3956C96.2609 15.3228 96.2032 15.2365 96.1638 15.1414C96.1244 15.0464 96.1042 14.9445 96.1042 14.8417V12.4833C96.0998 10.8286 95.4393 9.24319 94.2677 8.07469C93.0961 6.90619 91.5089 6.24999 89.8542 6.25L46.1458 6.3C44.4918 6.30331 42.9066 6.9621 41.7374 8.13205C40.5683 9.30199 39.9105 10.8877 39.9083 12.5417V14.85C39.9072 15.057 39.8242 15.2552 39.6774 15.4012C39.5306 15.5472 39.332 15.6292 39.125 15.6292H27.375C26.5462 15.6292 25.7513 15.9584 25.1653 16.5445C24.5792 17.1305 24.25 17.9254 24.25 18.7542V21.8792C24.25 32.5292 30.1083 43.8417 39.1958 46.3625C39.4642 46.437 39.7071 46.5835 39.898 46.7863C40.089 46.989 40.2208 47.2402 40.2792 47.5125C41.4042 52.7625 44.875 57.7667 50.3208 61.8875C54.4042 64.9833 59.2792 67.2625 63.6542 68.2333C64.0007 68.311 64.3104 68.5043 64.5323 68.7815C64.7542 69.0587 64.8751 69.4032 64.875 69.7583V86.725C64.8739 86.932 64.7909 87.1302 64.6441 87.2762C64.4973 87.4222 64.2987 87.5042 64.0917 87.5042H52.4667C50.7792 87.5042 49.3417 88.7958 49.2542 90.4792C49.2339 90.9016 49.2995 91.3238 49.4472 91.7202C49.5949 92.1165 49.8215 92.4788 50.1132 92.785C50.405 93.0912 50.7559 93.335 51.1447 93.5016C51.5335 93.6681 51.952 93.7541 52.375 93.7542H83.5375C85.2208 93.7542 86.6625 92.4625 86.7458 90.7792C86.7655 90.3566 86.6995 89.9345 86.5516 89.5382C86.4038 89.1419 86.1772 88.7796 85.8856 88.4732C85.594 88.1668 85.2434 87.9226 84.8549 87.7553C84.4663 87.5881 84.048 87.5012 83.625 87.5H71.9042C71.6971 87.4989 71.499 87.4159 71.353 87.2691C71.207 87.1223 71.125 86.9237 71.125 86.7167V69.7542C71.1249 69.3991 71.2458 69.0546 71.4677 68.7774C71.6896 68.5002 71.9993 68.3068 72.3458 68.2292C76.7208 67.2542 81.5958 64.9792 85.6792 61.8875C91.1292 57.7625 94.5958 52.7625 95.7208 47.5125C95.7785 47.2394 95.91 46.9874 96.101 46.7838C96.292 46.5803 96.5353 46.4332 96.8042 46.3583C105.887 43.8375 111.75 32.525 111.75 21.875V18.75C111.75 17.9212 111.421 17.1263 110.835 16.5403C110.249 15.9542 109.454 15.625 108.625 15.625ZM39.875 38.7167C39.8745 38.8534 39.8381 38.9876 39.7693 39.1058C39.7005 39.224 39.6018 39.322 39.4832 39.39C39.3645 39.458 39.2301 39.4935 39.0933 39.4931C38.9566 39.4927 38.8224 39.4562 38.7042 39.3875C36.7 38.1958 35.2375 36.3875 34.3792 35.1125C32.0542 31.6583 30.6708 27.1708 30.5125 22.6875C30.5086 22.5822 30.5259 22.4772 30.5635 22.3788C30.6011 22.2803 30.6582 22.1905 30.7314 22.1146C30.8045 22.0388 30.8922 21.9785 30.9892 21.9373C31.0862 21.8961 31.1905 21.8749 31.2958 21.875H39.1083C39.211 21.875 39.3127 21.8953 39.4075 21.9347C39.5023 21.9741 39.5884 22.0319 39.6608 22.1047C39.7332 22.1775 39.7905 22.2639 39.8294 22.3589C39.8683 22.4539 39.888 22.5557 39.8875 22.6583C39.8875 28.0167 39.875 34.1542 39.875 38.7167ZM101.621 35.1125C100.762 36.3875 99.3 38.1958 97.2958 39.3875C97.1773 39.4564 97.0427 39.4928 96.9056 39.4931C96.7685 39.4933 96.6338 39.4574 96.515 39.3889C96.3962 39.3205 96.2976 39.2219 96.2291 39.1031C96.1607 38.9843 96.1247 38.8496 96.125 38.7125C96.125 33.5333 96.125 27.6542 96.1167 22.6542C96.1167 22.5518 96.1368 22.4505 96.176 22.356C96.2151 22.2615 96.2725 22.1756 96.3449 22.1032C96.4172 22.0309 96.5031 21.9735 96.5977 21.9343C96.6922 21.8952 96.7935 21.875 96.8958 21.875H104.708C104.814 21.8743 104.918 21.8951 105.016 21.9361C105.113 21.9771 105.201 22.0374 105.274 22.1134C105.347 22.1893 105.404 22.2794 105.442 22.3781C105.479 22.4768 105.496 22.5821 105.492 22.6875C105.337 27.1708 103.95 31.6583 101.621 35.1125Z" fill="#FAFF00"/>
<path d="M127.656 48.9063H120.966C120.907 48.9063 120.849 48.8947 120.795 48.8723C120.741 48.8498 120.692 48.8169 120.65 48.7755C120.609 48.734 120.576 48.6848 120.553 48.6306C120.531 48.5764 120.519 48.5184 120.519 48.4598V47.1155C120.517 46.1723 120.14 45.2686 119.473 44.6026C118.805 43.9365 117.9 43.5625 116.957 43.5625L92.0431 43.591C91.1003 43.5929 90.1968 43.9684 89.5303 44.6353C88.8639 45.3021 88.489 46.206 88.4877 47.1488V48.4645C88.4871 48.5825 88.4398 48.6955 88.3561 48.7787C88.2725 48.8619 88.1593 48.9086 88.0413 48.9086H81.3438C80.8713 48.9086 80.4183 49.0963 80.0842 49.4303C79.7502 49.7644 79.5625 50.2175 79.5625 50.6899V52.4711C79.5625 58.5416 82.9017 64.9898 88.0816 66.4266C88.2346 66.4691 88.373 66.5526 88.4819 66.6682C88.5907 66.7837 88.6659 66.9269 88.6991 67.0821C89.3404 70.0746 91.3187 72.927 94.4229 75.2759C96.7504 77.0405 99.5291 78.3396 102.023 78.893C102.22 78.9373 102.397 79.0475 102.523 79.2055C102.65 79.3635 102.719 79.5599 102.719 79.7623V89.4333C102.718 89.5513 102.671 89.6642 102.587 89.7474C102.503 89.8307 102.39 89.8774 102.272 89.8774H95.646C94.6841 89.8774 93.8647 90.6136 93.8149 91.5731C93.8033 91.8139 93.8407 92.0546 93.9249 92.2805C94.0091 92.5064 94.1382 92.7129 94.3046 92.8874C94.4709 93.062 94.6709 93.2009 94.8925 93.2959C95.1141 93.3909 95.3527 93.4398 95.5938 93.4399H113.356C114.316 93.4399 115.138 92.7036 115.185 91.7441C115.196 91.5033 115.159 91.2627 115.074 91.0368C114.99 90.8109 114.861 90.6044 114.695 90.4297C114.529 90.2551 114.329 90.1159 114.107 90.0206C113.886 89.9252 113.647 89.8757 113.406 89.875H106.725C106.607 89.8744 106.494 89.8271 106.411 89.7434C106.328 89.6597 106.281 89.5465 106.281 89.4285V79.7599C106.281 79.5575 106.35 79.3611 106.477 79.2031C106.603 79.0451 106.78 78.9349 106.977 78.8906C109.471 78.3349 112.25 77.0381 114.577 75.2759C117.684 72.9246 119.66 70.0746 120.301 67.0821C120.334 66.9265 120.409 66.7828 120.518 66.6668C120.626 66.5508 120.765 66.4669 120.918 66.4243C126.096 64.9874 129.438 58.5393 129.438 52.4688V50.6875C129.438 50.2151 129.25 49.762 128.916 49.428C128.582 49.0939 128.129 48.9063 127.656 48.9063ZM88.4688 62.0685C88.4685 62.1464 88.4477 62.2229 88.4085 62.2903C88.3693 62.3577 88.313 62.4135 88.2454 62.4523C88.1778 62.491 88.1012 62.5113 88.0232 62.5111C87.9453 62.5108 87.8688 62.4901 87.8014 62.4509C86.659 61.7716 85.8254 60.7409 85.3361 60.0141C84.0109 58.0453 83.2224 55.4874 83.1321 52.9319C83.1299 52.8719 83.1398 52.812 83.1612 52.7559C83.1827 52.6998 83.2152 52.6486 83.2569 52.6053C83.2986 52.5621 83.3485 52.5277 83.4038 52.5043C83.4591 52.4808 83.5186 52.4687 83.5786 52.4688H88.0317C88.0903 52.4688 88.1482 52.4803 88.2023 52.5028C88.2563 52.5253 88.3054 52.5582 88.3466 52.5997C88.3879 52.6412 88.4206 52.6904 88.4428 52.7446C88.4649 52.7987 88.4762 52.8567 88.4759 52.9153C88.4759 55.9695 88.4688 59.4679 88.4688 62.0685ZM123.664 60.0141C123.175 60.7409 122.341 61.7716 121.199 62.4509C121.131 62.4902 121.054 62.5109 120.976 62.5111C120.898 62.5112 120.821 62.4907 120.754 62.4517C120.686 62.4127 120.63 62.3565 120.591 62.2888C120.552 62.2211 120.531 62.1443 120.531 62.0661C120.531 59.114 120.531 55.7629 120.526 52.9129C120.526 52.8546 120.538 52.7968 120.56 52.7429C120.583 52.689 120.615 52.6401 120.657 52.5988C120.698 52.5576 120.747 52.5249 120.801 52.5026C120.855 52.4802 120.912 52.4688 120.971 52.4688H125.424C125.484 52.4684 125.544 52.4802 125.599 52.5036C125.654 52.5269 125.705 52.5613 125.746 52.6046C125.788 52.6479 125.821 52.6993 125.842 52.7555C125.863 52.8118 125.873 52.8718 125.87 52.9319C125.782 55.4874 124.992 58.0453 123.664 60.0141Z" fill="#8C7F3B"/>
</svg>
